<svg width="36" height="36" viewBox="0 0 36 36" fill="none" xmlns="http://www.w3.org/2000/svg">
<rect x="0.5" y="0.5" width="35" height="35" rx="17.5" fill="white"/>
<rect x="0.5" y="0.5" width="35" height="35" rx="17.5" stroke="#EDEDED"/>
<path d="M10.5 12.1667C10.5 11.2462 11.2462 10.5 12.1667 10.5H14.8994C15.2581 10.5 15.5765 10.7295 15.6899 11.0698L16.9381 14.8143C17.0693 15.2078 16.8911 15.6378 16.5202 15.8232L14.6392 16.7637C15.5577 18.801 17.199 20.4423 19.2363 21.3608L20.1768 19.4798C20.3622 19.1088 20.7922 18.9307 21.1857 19.0619L24.9302 20.3101C25.2705 20.4235 25.5 20.7419 25.5 21.1006V23.8333C25.5 24.7538 24.7538 25.5 23.8333 25.5H23C16.0964 25.5 10.5 19.9036 10.5 13V12.1667Z" stroke="#101010" stroke-width="2" stroke-linecap="round" stroke-linejoin="round"/>
</svg>
