<svg width="16" height="16" viewBox="0 0 16 16" fill="none" xmlns="http://www.w3.org/2000/svg">
<path d="M15.4472 8.89444C15.786 8.72505 16 8.37878 16 8.00001C16 7.62124 15.786 7.27498 15.4472 7.10558L1.44721 0.105584C1.09251 -0.0717665 0.666526 -0.0227602 0.361364 0.230502C0.0562019 0.483764 -0.0704689 0.893423 0.038476 1.27473L1.46704 6.27472C1.5897 6.70402 1.98209 7 2.42857 7H7C7.55229 7 8 7.44772 8 8C8 8.55229 7.55229 9 7 9L2.42857 9C1.98209 9 1.58971 9.29598 1.46705 9.72528L0.038476 14.7253C-0.0704689 15.1066 0.0562019 15.5163 0.361364 15.7695C0.666526 16.0228 1.09251 16.0718 1.44721 15.8944L15.4472 8.89444Z" fill="white"/>
</svg>
